PathFileType	4	(X/Y/Z)	/Users/itak/Documents/Research/Walk-IL/dataset/trc/00144_00007.trc
DataRate	CameraRate	NumFrames	NumMarkers	Units	OrigDataRate	OrigDataStartFrame	OrigNumFrames
100.000000	100.000000	4	53	mm	100.000000	192	512
Frame#	Time	RPSI			LPSI			L3			STRN			T10			C7			CLAV			RBAK			LBAK			LSHO			LUPA			LAEL			LAOL			LWTS			LWPS			LFRA			LIFD			LHPS			LHTS			RSHO			RUPA			RAEL			RAOL			RWTS			RWPS			RFRA			RIFD			RHTS			RHPS			RBHD			LFHD			RFHD			LBHD			LHIP			RHIP			RASI			LASI			LKNE			LTHI			LANK			LTIP			LTOE			LMT1			LMT5			LHEE			RKNE			RTHI			RANK			RTIP			RTOE			RMT1			RMT5			RHEE			
		X1	Y1	Z1	X2	Y2	Z2	X3	Y3	Z3	X4	Y4	Z4	X5	Y5	Z5	X6	Y6	Z6	X7	Y7	Z7	X8	Y8	Z8	X9	Y9	Z9	X10	Y10	Z10	X11	Y11	Z11	X12	Y12	Z12	X13	Y13	Z13	X14	Y14	Z14	X15	Y15	Z15	X16	Y16	Z16	X17	Y17	Z17	X18	Y18	Z18	X19	Y19	Z19	X20	Y20	Z20	X21	Y21	Z21	X22	Y22	Z22	X23	Y23	Z23	X24	Y24	Z24	X25	Y25	Z25	X26	Y26	Z26	X27	Y27	Z27	X28	Y28	Z28	X29	Y29	Z29	X30	Y30	Z30	X31	Y31	Z31	X32	Y32	Z32	X33	Y33	Z33	X34	Y34	Z34	X35	Y35	Z35	X36	Y36	Z36	X37	Y37	Z37	X38	Y38	Z38	X39	Y39	Z39	X40	Y40	Z40	X41	Y41	Z41	X42	Y42	Z42	X43	Y43	Z43	X44	Y44	Z44	X45	Y45	Z45	X46	Y46	Z46	X47	Y47	Z47	X48	Y48	Z48	X49	Y49	Z49	X50	Y50	Z50	X51	Y51	Z51	X52	Y52	Z52	X53	Y53	Z53	

193	1.92	-470.4562377929688	1122.625854492188	1192.949096679688	-471.2857360839844	1128.340698242188	1056.888549804688	-477.201416015625	1163.164306640625	1125.81396484375	-242.8954162597656	1345.025390625	1123.83154296875	-494.2821960449219	1314.342407226562	1139.687377929688	-444.5907592773438	1603.64892578125	1117.32958984375	-270.1660766601562	1481.81103515625	1116.02880859375	-506.0299377441406	1426.72216796875	1214.22216796875	-460.3088989257812	1581.706420898438	1018.553161621094	-380.1744995117188	1558.1298828125	942.4551391601562	-421.1886291503906	1427.69775390625	879.3283081054688	-440.512451171875	1210.224853515625	862.9160766601562	-494.1917724609375	1206.10595703125	933.1808471679688	-369.7537231445312	940.4977416992188	889.0702514648438	-458.6661987304688	926.6842041015625	880.3819580078125	-441.4237670898438	1092.730712890625	858.0413208007812	-377.2365112304688	746.91796875	908.8526611328125	-440.3547058105469	848.1173706054688	876.9385986328125	-370.845947265625	851.1065673828125	877.8075561523438	-376.7297058105469	1585.295166015625	1293.9853515625	-392.2734985351562	1515.117065429688	1361.942016601562	-410.9809265136719	1222.352661132812	1393.590576171875	-428.708984375	1218.598999023438	1299.807861328125	-275.8031921386719	973.3275146484375	1372.084716796875	-346.2720336914062	960.9575805664062	1413.823608398438	-387.1587829589844	1148.1904296875	1409.608642578125	-257.5580749511719	777.5632934570312	1361.603149414062	-249.4663696289062	865.0630493164062	1378.114501953125	-312.0167846679688	859.8363647460938	1414.70263671875	-383.2277221679688	1772.903686523438	1190.767211914062	-267.7010192871094	1825.906127929688	1009.919982910156	-230.8300170898438	1844.924072265625	1133.51220703125	-428.8177490234375	1756.81201171875	1065.006958007812	-375.169921875	1039.839599609375	945.975830078125	-352.4339294433594	1012.883911132812	1308.737548828125	-265.311767578125	1083.376953125	1262.309814453125	-270.15185546875	1095.781372070312	997.578125	-249.4852294921875	544.8284912109375	1015.068664550781	-303.7438659667969	680.1858520507812	972.27587890625	-262.97412109375	35.72529220581055	1068.463256835938	-295.6390380859375	282.8599243164062	1011.662475585938	-33.88006591796875	52.87491989135742	1108.20361328125	-107.6121826171875	53.10454940795898	1150.663696289062	-142.0050811767578	43.1185302734375	1038.129028320312	-327.7014465332031	37.65365982055664	1133.546142578125	-410.0005493164062	520.0057983398438	1278.546630859375	-351.6734008789062	798.275634765625	1295.603881835938	-773.1499633789062	121.3409957885742	1268.275512695312	-502.4519958496094	411.8374328613281	1292.7578125	-575.3960571289062	45.81376266479492	1208.549926757812	-629.6484375	53.25982284545898	1163.592407226562	-666.0645751953125	45.83414459228516	1278.843505859375	-817.4755859375	163.6599426269531	1221.975463867188	
194	1.93	-462.1487121582031	1122.8642578125	1191.093627929688	-462.4028625488281	1128.63525390625	1054.982421875	-468.6727905273438	1163.545776367188	1123.75537109375	-234.7206573486328	1345.999389648438	1121.5849609375	-486.3751831054688	1314.785278320312	1136.905029296875	-437.1833190917969	1604.1875	1114.790649414062	-262.3179016113281	1482.740234375	1113.734741210938	-498.2361450195312	1427.055908203125	1211.443359375	-452.5649719238281	1582.145874023438	1015.835510253906	-372.0424499511719	1558.970947265625	939.9991455078125	-412.4120788574219	1428.481689453125	876.581787109375	-430.4751586914062	1210.8232421875	859.9859008789062	-484.4308471679688	1206.29248046875	929.9642944335938	-356.58056640625	942.0646362304688	886.5629272460938	-445.2547302246094	927.07275390625	877.4945068359375	-430.0482788085938	1093.305908203125	855.1784057617188	-361.4077453613281	748.4613647460938	906.460693359375	-425.89501953125	848.7135620117188	874.1951293945312	-356.4149169921875	852.6853637695312	875.3291625976562	-369.5198669433594	1585.95361328125	1291.427734375	-385.1448364257812	1515.879760742188	1359.433471679688	-404.3711242675781	1223.325073242188	1391.707885742188	-422.0080261230469	1219.408203125	1297.845458984375	-269.3563842773438	974.2354125976562	1370.932495117188	-339.8803100585938	961.9361572265625	1412.587524414062	-380.7676696777344	1149.18310546875	1407.931884765625	-251.1404418945312	778.455078125	1360.617797851562	-243.0808410644531	865.960693359375	1377.093139648438	-305.6510925292969	860.7797241210938	1413.62646484375	-376.1259155273438	1773.507934570312	1188.739501953125	-261.3556823730469	1827.060546875	1007.591369628906	-224.1920471191406	1846.1162109375	1131.088623046875	-422.056640625	1757.332397460938	1063.059814453125	-366.9812927246094	1040.316528320312	944.11865234375	-343.5975646972656	1013.447143554688	1306.670288085938	-256.8522644042969	1084.417846679688	1260.071899414062	-261.7158813476562	1096.37109375	995.4259033203125	-245.3309936523438	544.3677978515625	1013.923522949219	-298.2688598632812	680.2032470703125	971.02490234375	-262.71435546875	35.91304397583008	1068.525146484375	-293.4623107910156	282.7301635742188	1011.114685058594	-33.27568054199219	51.33885955810547	1108.76611328125	-107.3198776245117	52.36814498901367	1151.21630859375	-141.5591125488281	43.03197479248047	1038.464477539062	-327.5829467773438	37.81455993652344	1133.473022460938	-392.4195861816406	519.29296875	1278.439086914062	-339.5388793945312	798.6767578125	1294.2373046875	-764.099853515625	129.3892364501953	1272.266845703125	-485.9738159179688	412.1734924316406	1293.32275390625	-572.9730834960938	46.19561386108398	1209.750366210938	-626.5087280273438	55.14250564575195	1164.201416015625	-661.7573852539062	47.28091049194336	1279.799194335938	-807.35302734375	172.9011077880859	1226.045043945312	
195	1.94	-454.0081481933594	1122.791137695312	1189.390502929688	-453.6833801269531	1128.765014648438	1053.244750976562	-460.2471008300781	1163.756958007812	1121.869140625	-226.6936187744141	1346.734497070312	1119.407104492188	-478.750732421875	1315.102416992188	1134.068725585938	-429.8424377441406	1604.567260742188	1112.246337890625	-254.5729827880859	1483.4326171875	1111.497314453125	-490.623046875	1427.235717773438	1208.597412109375	-444.7718200683594	1582.4169921875	1013.034484863281	-363.8641967773438	1559.556030273438	937.5479125976562	-403.5603942871094	1429.02685546875	873.8156127929688	-420.3368835449219	1211.184936523438	856.9280395507812	-474.6666259765625	1206.212280273438	926.5376586914062	-343.2122802734375	943.4857788085938	884.0133056640625	-431.6153869628906	927.2478637695312	874.445068359375	-418.52783203125	1093.660766601562	852.1798706054688	-345.2465515136719	749.9008178710938	904.00390625	-411.1844177246094	849.1451416015625	871.2429809570312	-341.6969909667969	854.1465454101562	872.8392333984375	-362.4452514648438	1586.372436523438	1288.898193359375	-378.1994018554688	1516.374267578125	1356.921752929688	-397.7871704101562	1224.006713867188	1389.832763671875	-415.34619140625	1219.895141601562	1295.86328125	-262.7914428710938	974.9666748046875	1369.758911132812	-333.353271484375	962.6793212890625	1411.326171875	-374.3831481933594	1149.895263671875	1406.248901367188	-244.3680877685547	779.2037353515625	1359.736206054688	-236.4368896484375	866.7225952148438	1376.121215820312	-299.034423828125	861.5469970703125	1412.581909179688	-368.9795227050781	1773.859130859375	1186.7802734375	-255.1252136230469	1828.060913085938	1005.26806640625	-217.6076507568359	1847.140747070312	1128.656127929688	-415.3299255371094	1757.601196289062	1061.174438476562	-359.0055541992188	1040.694213867188	942.334228515625	-334.8145141601562	1013.711242675781	1304.663330078125	-248.5128173828125	1085.218383789062	1257.8828125	-253.4298706054688	1096.774780273438	993.28515625	-241.3324279785156	543.8181762695312	1012.689392089844	-292.9986572265625	680.143798828125	969.6807861328125	-262.4699401855469	36.0781135559082	1068.571411132812	-291.355712890625	282.5601196289062	1010.471557617188	-32.70348739624023	49.93341064453125	1109.205688476562	-107.0331802368164	51.72915267944336	1151.659423828125	-141.1722717285156	42.91274261474609	1038.720092773438	-327.4757690429688	37.94850158691406	1133.423217773438	-374.3783569335938	518.47705078125	1278.030517578125	-327.2693176269531	798.8782958984375	1292.854125976562	-753.7265625	137.2046966552734	1276.401611328125	-468.7417907714844	412.2503051757812	1293.610229492188	-569.0294799804688	46.82554244995117	1211.000732421875	-621.9965209960938	57.30051040649414	1165.0244140625	-655.9542846679688	49.19772338867188	1281.03955078125	-796.1591186523438	181.6578979492188	1230.284301757812	
196	1.95	-446.0340270996094	1122.450439453125	1187.860595703125	-445.1823425292969	1128.780883789062	1051.689575195312	-451.9282531738281	1163.834350585938	1120.171264648438	-218.8276062011719	1347.272705078125	1117.313232421875	-471.4232177734375	1315.326782226562	1131.224243164062	-422.5876770019531	1604.820556640625	1109.727905273438	-246.9427947998047	1483.928588867188	1109.335327148438	-483.1918334960938	1427.297119140625	1205.723876953125	-436.9730529785156	1582.554565429688	1010.192749023438	-355.6867065429688	1559.915283203125	935.1265869140625	-394.6608581542969	1429.355834960938	871.0619506835938	-410.0706787109375	1211.333740234375	853.7630004882812	-464.8805541992188	1205.879028320312	922.9127197265625	-329.6687927246094	944.771728515625	881.4270629882812	-417.761962890625	927.2412109375	871.2317504882812	-406.847900390625	1093.824951171875	849.0546875	-328.8248291015625	751.242919921875	901.4607543945312	-396.2405090332031	849.4444580078125	868.0855102539062	-326.7309875488281	855.5056762695312	870.33154296875	-355.5118103027344	1586.6005859375	1286.41748046875	-371.4381408691406	1516.649047851562	1354.431884765625	-391.2578735351562	1224.437377929688	1387.926513671875	-408.6781921386719	1220.108764648438	1293.83056640625	-256.1286010742188	975.544189453125	1368.578735351562	-326.732666015625	963.2174072265625	1410.017456054688	-368.0147094726562	1150.364135742188	1404.537109375	-237.2745666503906	779.830078125	1358.98876953125	-229.5708312988281	867.364990234375	1375.234497070312	-292.2235107421875	862.1674194335938	1411.566284179688	-361.7847290039062	1774.004272460938	1184.8828125	-248.9912261962891	1828.922485351562	1002.944458007812	-211.0632476806641	1848.021606445312	1126.208374023438	-408.6288757324219	1757.657470703125	1059.352783203125	-351.246826171875	1041.003540039062	940.6192016601562	-326.0596923828125	1013.716003417969	1302.71630859375	-240.2815246582031	1085.804931640625	1255.741088867188	-245.3108062744141	1097.045043945312	991.1519165039062	-237.4658203125	543.2266235351562	1011.393310546875	-287.8916931152344	680.0494995117188	968.2672729492188	-262.2515869140625	36.20619964599609	1068.59033203125	-289.2812805175781	282.3789367675781	1009.706848144531	-32.18566131591797	48.71604537963867	1109.538452148438	-106.7771224975586	51.20921325683594	1151.996948242188	-140.8489379882812	42.77557754516602	1038.896850585938	-327.3873291015625	38.05466079711914	1133.375122070312	-355.9478149414062	517.6167602539062	1277.247436523438	-314.8674011230469	798.9281005859375	1291.406005859375	-742.0352172851562	144.5220184326172	1280.548828125	-450.8675842285156	412.1388549804688	1293.55419921875	-563.1030883789062	47.77848434448242	1212.36474609375	-615.71142578125	59.7548713684082	1166.147583007812	-648.3001098632812	51.64568328857422	1282.634033203125	-783.9273071289062	189.7166748046875	1234.552490234375	
